<svg aria-hidden="true" focusable="false" role="presentation" class="icon icon-ruler" width="24" height="25" viewBox="0 0 24 25" fill="none" xmlns="http://www.w3.org/2000/svg"><path d="M14.5 6.25941L16 7.75941M11.5 9.25941L13 10.7594M8.49996 12.2594L9.99996 13.7594M5.49996 15.2594L6.99996 16.7594M2.56561 18.3251L6.43424 22.1938C6.63225 22.3918 6.73125 22.4908 6.84542 22.5279C6.94584 22.5605 7.05401 22.5605 7.15443 22.5279C7.2686 22.4908 7.3676 22.3918 7.56561 22.1938L21.4342 8.32513C21.6322 8.12712 21.7313 8.02812 21.7683 7.91395C21.801 7.81353 21.801 7.70536 21.7683 7.60494C21.7313 7.49077 21.6322 7.39177 21.4342 7.19376L17.5656 3.32513C17.3676 3.12712 17.2686 3.02812 17.1544 2.99102C17.054 2.9584 16.9458 2.9584 16.8454 2.99102C16.7313 3.02812 16.6322 3.12712 16.4342 3.32513L2.56561 17.1938C2.3676 17.3918 2.2686 17.4908 2.2315 17.6049C2.19887 17.7054 2.19887 17.8135 2.2315 17.914C2.2686 18.0281 2.3676 18.1271 2.56561 18.3251Z" stroke="currentColor" stroke-width="1.4" stroke-linecap="round" stroke-linejoin="round"></path></svg>